<html>
<head>
<meta charset="UTF-8">
<meta name="viewport" content="width=device-width, initial-scale=1.0"/>

<style>
.comment
{
    padding-left: 20px;
    margin-top: 4px;
    margin-right: 4px;
    margin-bottom: 4px;
    border: 2px #000 solid;
}
.submission
{
    border: 4px #00f solid;
    padding-left: 20px;
}
.hidden
{
    display: none;
}
</style>
</head>
<body><div class="submission" id="t3_73ox8z">
    <p class="userinfo">
        <a href="https://www.reddit.com/u/nyte_train">nyte_train</a>
        <span class="score"> | 23 points</span>
        <span class="timestamp"> | Oct 01 2017 22:48:19</span>
    </p>
    <strong>[TV] The Good Place S02E02 1080p NF WEB-DL x265 10bit Opus 5.1 (353MB)</strong>
    <p><p>mega + zippy https://links.snahp.it/719gut</p>
<p>pw is sknilagem backwards</p>
<pre><code>General
Unique ID                      : 196106115440426774583175250065826393477 (0x9388A9FBEE6EFA5D9DEBDB1E56EE2D85)
Complete name                  : The.Good.Place.S02E02.1080p.NF.WEB-DL.x265.10bit.Opus.5.1.mkv
Format                         : Matroska
Format version                 : Version 4 / Version 2
File size                      : 353 MiB
Duration                       : 22 min 23 s
Overall bit rate               : 2 207 kb/s
Encoded date                   : UTC 2017-09-30 17:18:13
Writing application            : mkvmerge v16.0.0 ('Protest') 64-bit
Writing library                : libebml v1.3.5 + libmatroska v1.4.8
SOURCE                         : The.Good.Place.S02E02.Dance.Dance.Resolution.1080p.NF.WEB-DL.DD5.1.x264-AJP69

Video
ID                             : 1
Format                         : HEVC
Format/Info                    : High Efficiency Video Coding
Format profile                 : Main 10@L4@Main
Codec ID                       : V_MPEGH/ISO/HEVC
Duration                       : 22 min 23 s
Bit rate                       : 2 052 kb/s
Width                          : 1 920 pixels
Height                         : 1 080 pixels
Display aspect ratio           : 16:9
Frame rate mode                : Constant
Frame rate                     : 23.976 (24000/1001) FPS
Color space                    : YUV
Chroma subsampling             : 4:2:0
Bit depth                      : 10 bits
Bits/(Pixel*Frame)             : 0.041
Stream size                    : 329 MiB (93%)
Writing library                : x265 2.5+20-0967d0add97e:[Windows][GCC 6.2.1][64 bit] 10bit
Encoding settings              : cpuid=1173503 / frame-threads=2 / numa-pools=4 / wpp / no-pmode / no-pme / no-psnr / no-ssim / log-level=2 / input-csp=1 / input-res=1920x1080 / interlace=0 / total-frames=32214 / level-idc=0 / high-tier=1 / uhd-bd=0 / ref=4 / no-allow-non-conformance / no-repeat-headers / annexb / no-aud / no-hrd / info / hash=0 / no-temporal-layers / open-gop / min-keyint=23 / keyint=250 / bframes=4 / b-adapt=2 / b-pyramid / bframe-bias=0 / rc-lookahead=25 / lookahead-slices=4 / scenecut=40 / no-intra-refresh / ctu=64 / min-cu-size=8 / rect / no-amp / max-tu-size=32 / tu-inter-depth=1 / tu-intra-depth=1 / limit-tu=0 / rdoq-level=2 / dynamic-rd=0.00 / no-ssim-rd / signhide / no-tskip / nr-intra=0 / nr-inter=0 / no-constrained-intra / strong-intra-smoothing / max-merge=3 / limit-refs=3 / limit-modes / me=3 / subme=3 / merange=57 / temporal-mvp / weightp / no-weightb / no-analyze-src-pics / deblock=0:0 / sao / no-sao-non-deblock / rd=4 / no-early-skip / rskip / no-fast-intra / no-tskip-fast / no-cu-lossless / no-b-intra / no-splitrd-skip / rdpenalty=0 / psy-rd=2.00 / psy-rdoq=1.00 / no-rd-refine / analysis-reuse-mode=0 / no-lossless / cbqpoffs=0 / crqpoffs=0 / rc=abr / bitrate=2050 / qcomp=0.60 / qpstep=4 / stats-write=0 / stats-read=2 / cplxblur=20.0 / qblur=0.5 / ipratio=1.40 / pbratio=1.30 / aq-mode=1 / aq-strength=1.00 / cutree / zone-count=0 / no-strict-cbr / qg-size=32 / no-rc-grain / qpmax=69 / qpmin=0 / no-const-vbv / sar=0 / overscan=0 / videoformat=5 / range=0 / colorprim=2 / transfer=2 / colormatrix=2 / chromaloc=0 / display-window=0 / max-cll=0,0 / min-luma=0 / max-luma=1023 / log2-max-poc-lsb=8 / vui-timing-info / vui-hrd-info / slices=1 / opt-qp-pps / opt-ref-list-length-pps / no-multi-pass-opt-rps / scenecut-bias=0.05 / no-opt-cu-delta-qp / no-aq-motion / no-hdr / no-hdr-opt / no-dhdr10-opt / analysis-reuse-level=5 / scale-factor=0 / refine-intra=0 / refine-inter=0 / refine-mv=0 / no-limit-sao / ctu-info=0
Default                        : Yes
Forced                         : No

Audio
ID                             : 2
Format                         : Opus
Codec ID                       : A_OPUS
Duration                       : 22 min 23 s
Bit rate                       : 152 kb/s
Channel(s)                     : 6 channels
Channel positions              : Front: L C R, Rear: L R, LFE
Sampling rate                  : 48.0 kHz
Frame rate                     : 50.000 FPS (960 SPF)
Compression mode               : Lossy
Stream size                    : 24.3 MiB (7%)
Language                       : English
Default                        : No
Forced                         : No
</code></pre></p>
    <p class="toolbar">
        <a href="https://www.reddit.com/r/megalinks/comments/73ox8z">permalink</a>
    </p>
</div>
<div class="comment" id="t1_dnsbp5t">
    <p class="userinfo">
        <a
        class="toggle_hide_button"
        href="javascript:void(0)"
        onclick="toggle_collapse(this.parentElement.parentElement)">[-]
        </a>
        <a href="https://www.reddit.com/u/bpfn">bpfn</a>
        <span class="score"> | 3 points</span>
        <span class="timestamp"> | Oct 02 2017 03:36:13</span>
    </p>
    <div class="collapsible">
        <p>Thanks for Mega &amp; Zippy :) This episode is one of the best in the series so far</p>
        <p class="toolbar">
            <a href="https://www.reddit.com/r/megalinks/comments/73ox8z/_/dnsbp5t">permalink</a>
        </p>
        
    </div>
</div>

<div class="comment" id="t1_dnsb4yw">
    <p class="userinfo">
        <a
        class="toggle_hide_button"
        href="javascript:void(0)"
        onclick="toggle_collapse(this.parentElement.parentElement)">[-]
        </a>
        <a href="https://www.reddit.com/u/shruber">shruber</a>
        <span class="score"> | 2 points</span>
        <span class="timestamp"> | Oct 02 2017 03:22:29</span>
    </p>
    <div class="collapsible">
        <p>Thanks!</p>
        <p class="toolbar">
            <a href="https://www.reddit.com/r/megalinks/comments/73ox8z/_/dnsb4yw">permalink</a>
        </p>
        
    </div>
</div>
</body>

<script>
function toggle_collapse(comment_div)
{
    var button = comment_div.getElementsByClassName("toggle_hide_button")[0];
    var collapsible = comment_div.getElementsByClassName("collapsible")[0];
    if (collapsible.classList.contains("hidden"))
    {
        collapsible.classList.remove("hidden");
        button.innerText = "[-]";
    }
    else
    {
        collapsible.classList.add("hidden");
        button.innerText = "[+]";
    }
}
</script>
</html>
